{
  "accessors": [
    {
      "bufferView": 2,
      "componentType": 5126,
      "count": 322,
      "max": [
        0.869242787361145,
        0.943183183670044,
        0.9989992380142212
      ],
      "min": [
        -0.9431822896003723,
        -0.9431827664375305,
        -0.9989992380142212
      ],
      "type": "VEC3"
    },
    {
      "bufferView": 2,
      "byteOffset": 3864,
      "componentType": 5126,
      "count": 322,
      "max": [
        0.8275885581970215,
        0.9195669293403625,
        0.9960204362869263
      ],
      "min": [
        -0.9195669889450073,
        -0.9195670485496521,
        -0.9960204362869263
      ],
      "type": "VEC3"
    },
    {
      "bufferView": 3,
      "componentType": 5126,
      "count": 322,
      "max": [
        0.9983983635902405,
        0.07014431059360504,
        0.9949489235877991,
        1.0
      ],
      "min": [
        -0.9983993768692017,
        -0.05076126009225845,
        -0.9944741129875183,
        1.0
      ],
      "type": "VEC4"
    },
    {
      "bufferView": 1,
      "componentType": 5126,
      "count": 322,
      "max": [
        1.0,
        0.9133040308952332
      ],
      "min": [
        0.00012120604515075684,
        0.11099100112915039
      ],
      "type": "VEC2"
    },
    {
      "bufferView": 1,
      "byteOffset": 2576,
      "componentType": 5126,
      "count": 322,
      "max": [
        1.0,
        0.9133040308952332
      ],
      "min": [
        0.00012120604515075684,
        0.11099100112915039
      ],
      "type": "VEC2"
    },
    {
      "bufferView": 1,
      "byteOffset": 5152,
      "componentType": 5126,
      "count": 322,
      "max": [
        1.0,
        0.9133040308952332
      ],
      "min": [
        0.00012120604515075684,
        0.11099100112915039
      ],
      "type": "VEC2"
    },
    {
      "bufferView": 0,
      "componentType": 5125,
      "count": 1440,
      "type": "SCALAR"
    },
    {
      "bufferView": 2,
      "byteOffset": 7728,
      "componentType": 5126,
      "count": 180,
      "max": [
        0.9808777570724487,
        0.464619904756546,
        0.9989992380142212
      ],
      "min": [
        -0.9808775782585144,
        -0.46461981534957886,
        -0.9989992380142212
      ],
      "type": "VEC3"
    },
    {
      "bufferView": 2,
      "byteOffset": 9888,
      "componentType": 5126,
      "count": 180,
      "max": [
        0.9904944896697998,
        0.38089719414711,
        0.9961346387863159
      ],
      "min": [
        -0.9904946088790894,
        -0.3808974027633667,
        -0.9961346387863159
      ],
      "type": "VEC3"
    },
    {
      "bufferView": 3,
      "byteOffset": 5152,
      "componentType": 5126,
      "count": 180,
      "max": [
        0.9961320161819458,
        0.030575605109333992,
        0.9952588677406311,
        1.0
      ],
      "min": [
        -0.9961320161819458,
        -0.024905668571591377,
        -0.9952512979507446,
        1.0
      ],
      "type": "VEC4"
    },
    {
      "bufferView": 1,
      "byteOffset": 7728,
      "componentType": 5126,
      "count": 180,
      "max": [
        1.0,
        0.6575390100479126
      ],
      "min": [
        0.00976458191871643,
        0.32746344804763794
      ],
      "type": "VEC2"
    },
    {
      "bufferView": 1,
      "byteOffset": 9168,
      "componentType": 5126,
      "count": 180,
      "max": [
        1.0,
        0.6575390100479126
      ],
      "min": [
        0.00976458191871643,
        0.32746344804763794
      ],
      "type": "VEC2"
    },
    {
      "bufferView": 1,
      "byteOffset": 10608,
      "componentType": 5126,
      "count": 180,
      "max": [
        1.0,
        0.6575390100479126
      ],
      "min": [
        0.00976458191871643,
        0.32746344804763794
      ],
      "type": "VEC2"
    },
    {
      "bufferView": 0,
      "byteOffset": 5760,
      "componentType": 5125,
      "count": 864,
      "type": "SCALAR"
    },
    {
      "bufferView": 2,
      "byteOffset": 12048,
      "componentType": 5126,
      "count": 183,
      "max": [
        0.4646201729774475,
        0.9808777570724487,
        0.9989992380142212
      ],
      "min": [
        -0.4646194875240326,
        -0.9808773398399353,
        -0.9989992380142212
      ],
      "type": "VEC3"
    },
    {
      "bufferView": 2,
      "byteOffset": 14244,
      "componentType": 5126,
      "count": 183,
      "max": [
        0.38089731335639954,
        0.9904945492744446,
        0.9960202574729919
      ],
      "min": [
        -0.3808974325656891,
        -0.9904944896697998,
        -0.9960203766822815
      ],
      "type": "VEC3"
    },
    {
      "bufferView": 3,
      "byteOffset": 8032,
      "componentType": 5126,
      "count": 183,
      "max": [
        0.9999611973762512,
        0.13444586098194122,
        0.985497772693634,
        1.0
      ],
      "min": [
        -0.9999614357948303,
        -0.0965060219168663,
        -0.9952870011329651,
        -1.0
      ],
      "type": "VEC4"
    },
    {
      "bufferView": 1,
      "byteOffset": 12048,
      "componentType": 5126,
      "count": 183,
      "max": [
        1.0,
        0.9557352662086487
      ],
      "min": [
        0.0,
        0.04426473379135132
      ],
      "type": "VEC2"
    },
    {
      "bufferView": 1,
      "byteOffset": 13512,
      "componentType": 5126,
      "count": 183,
      "max": [
        1.0,
        0.9557352662086487
      ],
      "min": [
        0.0,
        0.04426473379135132
      ],
      "type": "VEC2"
    },
    {
      "bufferView": 1,
      "byteOffset": 14976,
      "componentType": 5126,
      "count": 183,
      "max": [
        1.0,
        0.9557352662086487
      ],
      "min": [
        0.0,
        0.04426473379135132
      ],
      "type": "VEC2"
    },
    {
      "bufferView": 0,
      "byteOffset": 9216,
      "componentType": 5125,
      "count": 768,
      "type": "SCALAR"
    },
    {
      "bufferView": 2,
      "byteOffset": 16440,
      "componentType": 5126,
      "count": 2143,
      "max": [
        25.205421447753906,
        26.76046371459961,
        25.205427169799805
      ],
      "min": [
        -25.205448150634766,
        -23.650371551513672,
        -25.20543670654297
      ],
      "type": "VEC3"
    },
    {
      "bufferView": 2,
      "byteOffset": 42156,
      "componentType": 5126,
      "count": 2143,
      "max": [
        1.0,
        0.9999999403953552,
        1.0
      ],
      "min": [
        -1.0,
        -0.9999999403953552,
        -1.0
      ],
      "type": "VEC3"
    },
    {
      "bufferView": 1,
      "byteOffset": 16440,
      "componentType": 5126,
      "count": 2143,
      "max": [
        1.0000009536743164,
        1.0
      ],
      "min": [
        0.0,
        0.0
      ],
      "type": "VEC2"
    },
    {
      "bufferView": 0,
      "byteOffset": 12288,
      "componentType": 5125,
      "count": 11904,
      "type": "SCALAR"
    }
  ],
  "asset": {
    "extras": {
      "author": "LordSamueliSolo (https://sketchfab.com/LadyLionStudios)",
      "license": "CC-BY-4.0 (http://creativecommons.org/licenses/by/4.0/)",
      "source": "https://sketchfab.com/3d-models/beach-ball-fbx-low-poly-free-c084206bbadb4a5999ac69c35be0ece5",
      "title": "Beach Ball FBX Low Poly FREE"
    },
    "generator": "Sketchfab-12.68.0",
    "version": "2.0"
  },
  "bufferViews": [
    {
      "buffer": 0,
      "byteLength": 59904,
      "name": "floatBufferViews",
      "target": 34963
    },
    {
      "buffer": 0,
      "byteLength": 33584,
      "byteOffset": 59904,
      "byteStride": 8,
      "name": "floatBufferViews",
      "target": 34962
    },
    {
      "buffer": 0,
      "byteLength": 67872,
      "byteOffset": 93488,
      "byteStride": 12,
      "name": "floatBufferViews",
      "target": 34962
    },
    {
      "buffer": 0,
      "byteLength": 10960,
      "byteOffset": 161360,
      "byteStride": 16,
      "name": "floatBufferViews",
      "target": 34962
    }
  ],
  "buffers": [
    {
      "byteLength": 172320,
      "uri": "scene.bin"
    }
  ],
  "images": [
    {
      "uri": "textures/White_baseColor.jpeg"
    },
    {
      "uri": "textures/White_metallicRoughness.png"
    },
    {
      "uri": "textures/White_normal.jpeg"
    },
    {
      "uri": "textures/material_baseColor.jpeg"
    },
    {
      "uri": "textures/Blue_baseColor.jpeg"
    },
    {
      "uri": "textures/Material.001_baseColor.png"
    }
  ],
  "materials": [
    {
      "doubleSided": true,
      "name": "White",
      "normalTexture": {
        "index": 2
      },
      "pbrMetallicRoughness": {
        "baseColorTexture": {
          "index": 0
        },
        "metallicFactor": 0.0,
        "metallicRoughnessTexture": {
          "index": 1
        },
        "roughnessFactor": 0.0
      }
    },
    {
      "doubleSided": true,
      "name": "material",
      "normalTexture": {
        "index": 2
      },
      "pbrMetallicRoughness": {
        "baseColorTexture": {
          "index": 3
        },
        "metallicFactor": 0.0,
        "metallicRoughnessTexture": {
          "index": 1
        },
        "roughnessFactor": 0.0
      }
    },
    {
      "doubleSided": true,
      "name": "Blue",
      "normalTexture": {
        "index": 2
      },
      "pbrMetallicRoughness": {
        "baseColorTexture": {
          "index": 4
        },
        "metallicFactor": 0.0,
        "metallicRoughnessTexture": {
          "index": 1
        },
        "roughnessFactor": 0.0
      }
    },
    {
      "doubleSided": true,
      "name": "Material.001",
      "pbrMetallicRoughness": {
        "baseColorTexture": {
          "index": 5
        }
      }
    }
  ],
  "meshes": [
    {
      "name": "Sphere_White_0",
      "primitives": [
        {
          "attributes": {
            "NORMAL": 1,
            "POSITION": 0,
            "TANGENT": 2,
            "TEXCOORD_0": 3,
            "TEXCOORD_1": 4,
            "TEXCOORD_2": 5
          },
          "indices": 6,
          "material": 0,
          "mode": 4
        }
      ]
    },
    {
      "name": "Sphere.001_Red_0",
      "primitives": [
        {
          "attributes": {
            "NORMAL": 8,
            "POSITION": 7,
            "TANGENT": 9,
            "TEXCOORD_0": 10,
            "TEXCOORD_1": 11,
            "TEXCOORD_2": 12
          },
          "indices": 13,
          "material": 1,
          "mode": 4
        }
      ]
    },
    {
      "name": "Sphere.002_Blue_0",
      "primitives": [
        {
          "attributes": {
            "NORMAL": 15,
            "POSITION": 14,
            "TANGENT": 16,
            "TEXCOORD_0": 17,
            "TEXCOORD_1": 18,
            "TEXCOORD_2": 19
          },
          "indices": 20,
          "material": 2,
          "mode": 4
        }
      ]
    },
    {
      "name": "Sphere.003_Material.001_0",
      "primitives": [
        {
          "attributes": {
            "NORMAL": 22,
            "POSITION": 21,
            "TEXCOORD_0": 23
          },
          "indices": 24,
          "material": 3,
          "mode": 4
        }
      ]
    }
  ],
  "nodes": [
    {
      "children": [
        1
      ],
      "matrix": [
        1.0,
        0.0,
        0.0,
        0.0,
        0.0,
        2.220446049250313e-16,
        -1.0,
        0.0,
        0.0,
        1.0,
        2.220446049250313e-16,
        0.0,
        0.0,
        0.0,
        0.0,
        1.0
      ],
      "name": "Sketchfab_model"
    },
    {
      "children": [
        2
      ],
      "matrix": [
        1.0,
        0.0,
        0.0,
        0.0,
        0.0,
        0.0,
        1.0,
        0.0,
        0.0,
        -1.0,
        0.0,
        0.0,
        0.0,
        0.0,
        0.0,
        1.0
      ],
      "name": "BeachBallMAIN.fbx"
    },
    {
      "children": [
        3,
        5,
        7,
        9
      ],
      "name": "RootNode"
    },
    {
      "children": [
        4
      ],
      "matrix": [
        100.0,
        0.0,
        0.0,
        0.0,
        -0.0,
        -1.629206793918314e-05,
        -99.99999999999868,
        0.0,
        0.0,
        99.99999999999868,
        -1.629206793918314e-05,
        0.0,
        -2.749514579772949,
        6.630539894104004,
        0.0,
        1.0
      ],
      "name": "Sphere"
    },
    {
      "mesh": 0,
      "name": "Sphere_White_0"
    },
    {
      "children": [
        6
      ],
      "matrix": [
        100.0,
        0.0,
        0.0,
        0.0,
        -0.0,
        -1.629206793918314e-05,
        -99.99999999999868,
        0.0,
        0.0,
        99.99999999999868,
        -1.629206793918314e-05,
        0.0,
        -2.749514579772949,
        6.630539894104004,
        0.0,
        1.0
      ],
      "name": "Sphere.001"
    },
    {
      "mesh": 1,
      "name": "Sphere.001_Red_0"
    },
    {
      "children": [
        8
      ],
      "matrix": [
        100.0,
        0.0,
        0.0,
        0.0,
        -0.0,
        -1.629206793918314e-05,
        -99.99999999999868,
        0.0,
        0.0,
        99.99999999999868,
        -1.629206793918314e-05,
        0.0,
        -2.749514579772949,
        6.630539894104004,
        0.0,
        1.0
      ],
      "name": "Sphere.002"
    },
    {
      "mesh": 2,
      "name": "Sphere.002_Blue_0"
    },
    {
      "children": [
        10
      ],
      "matrix": [
        100.0,
        0.0,
        0.0,
        0.0,
        0.0,
        99.99999999999866,
        1.6292067073209114e-05,
        0.0,
        0.0,
        -1.6292067073209114e-05,
        99.99999999999866,
        0.0,
        0.0,
        0.0,
        0.0,
        1.0
      ],
      "name": "Sphere.003"
    },
    {
      "mesh": 3,
      "name": "Sphere.003_Material.001_0"
    }
  ],
  "samplers": [
    {
      "magFilter": 9729,
      "minFilter": 9987,
      "wrapS": 10497,
      "wrapT": 10497
    }
  ],
  "scene": 0,
  "scenes": [
    {
      "name": "Sketchfab_Scene",
      "nodes": [
        0
      ]
    }
  ],
  "textures": [
    {
      "sampler": 0,
      "source": 0
    },
    {
      "sampler": 0,
      "source": 1
    },
    {
      "sampler": 0,
      "source": 2
    },
    {
      "sampler": 0,
      "source": 3
    },
    {
      "sampler": 0,
      "source": 4
    },
    {
      "sampler": 0,
      "source": 5
    }
  ]
}
